REM DIRINDEX 1\2,1\3,1\4,1\5
REM DIRNAME cjc005,folder01,folder02,folder03,folder04
TITLE ""
FILE "P1Q_t_0822-0831.mp3" MP3
  TRACK 01 AUDIO
    TITLE "3:cjc005_3370"
    INDEX 01 00:00:00
  TRACK 02 AUDIO
    TITLE "0:"
    INDEX 01 00:01:19
  TRACK 03 AUDIO
    TITLE "4:cjc005_3371"
    INDEX 01 00:01:42
  TRACK 04 AUDIO
    TITLE "0:"
    INDEX 01 00:02:49
  TRACK 05 AUDIO
    TITLE "5:cjc005_3372"
    INDEX 01 00:02:73
  TRACK 06 AUDIO
    TITLE "0:"
    INDEX 01 00:07:03
  TRACK 07 AUDIO
    TITLE "3:cjc005_3373"
    INDEX 01 00:07:58
  TRACK 08 AUDIO
    TITLE "0:"
    INDEX 01 00:09:08
  TRACK 09 AUDIO
    TITLE "4:cjc005_3374"
    INDEX 01 00:09:30
  TRACK 10 AUDIO
    TITLE "0:"
    INDEX 01 00:10:45
  TRACK 11 AUDIO
    TITLE "5:cjc005_3375"
    INDEX 01 00:10:72
  TRACK 12 AUDIO
    TITLE "0:"
    INDEX 01 00:14:54
  TRACK 13 AUDIO
    TITLE "3:cjc005_3376"
    INDEX 01 00:15:34
  TRACK 14 AUDIO
    TITLE "0:"
    INDEX 01 00:16:63
  TRACK 15 AUDIO
    TITLE "4:cjc005_3377"
    INDEX 01 00:17:21
  TRACK 16 AUDIO
    TITLE "0:"
    INDEX 01 00:18:23
  TRACK 17 AUDIO
    TITLE "5:cjc005_3378"
    INDEX 01 00:18:46
  TRACK 18 AUDIO
    TITLE "0:"
    INDEX 01 00:22:34
  TRACK 19 AUDIO
    TITLE "3:cjc005_3379"
    INDEX 01 00:23:06
  TRACK 20 AUDIO
    TITLE "0:"
    INDEX 01 00:24:27
  TRACK 21 AUDIO
    TITLE "4:cjc005_3380"
    INDEX 01 00:24:57
  TRACK 22 AUDIO
    TITLE "0:"
    INDEX 01 00:25:66
  TRACK 23 AUDIO
    TITLE "5:cjc005_3381"
    INDEX 01 00:26:13
  TRACK 24 AUDIO
    TITLE "0:"
    INDEX 01 00:29:50
  TRACK 25 AUDIO
    TITLE "3:cjc005_3382"
    INDEX 01 00:30:18
  TRACK 26 AUDIO
    TITLE "0:"
    INDEX 01 00:31:41
  TRACK 27 AUDIO
    TITLE "4:cjc005_3383"
    INDEX 01 00:31:65
  TRACK 28 AUDIO
    TITLE "0:"
    INDEX 01 00:32:68
  TRACK 29 AUDIO
    TITLE "5:cjc005_3384"
    INDEX 01 00:33:19
  TRACK 30 AUDIO
    TITLE "0:"
    INDEX 01 00:37:12
  TRACK 31 AUDIO
    TITLE "3:cjc005_3385"
    INDEX 01 00:37:61
  TRACK 32 AUDIO
    TITLE "0:"
    INDEX 01 00:39:03
  TRACK 33 AUDIO
    TITLE "4:cjc005_3386"
    INDEX 01 00:39:31
  TRACK 34 AUDIO
    TITLE "0:"
    INDEX 01 00:40:42
  TRACK 35 AUDIO
    TITLE "5:cjc005_3387"
    INDEX 01 00:40:68
  TRACK 36 AUDIO
    TITLE "0:"
    INDEX 01 00:44:40
  TRACK 37 AUDIO
    TITLE "3:cjc005_3388"
    INDEX 01 00:45:22
  TRACK 38 AUDIO
    TITLE "0:"
    INDEX 01 00:46:33
  TRACK 39 AUDIO
    TITLE "4:cjc005_3389"
    INDEX 01 00:46:64
  TRACK 40 AUDIO
    TITLE "0:"
    INDEX 01 00:48:06
  TRACK 41 AUDIO
    TITLE "5:cjc005_3390"
    INDEX 01 00:48:30
  TRACK 42 AUDIO
    TITLE "0:"
    INDEX 01 00:51:50
  TRACK 43 AUDIO
    TITLE "3:cjc005_3391"
    INDEX 01 00:52:28
  TRACK 44 AUDIO
    TITLE "0:"
    INDEX 01 00:53:41
  TRACK 45 AUDIO
    TITLE "4:cjc005_3392"
    INDEX 01 00:53:74
  TRACK 46 AUDIO
    TITLE "0:"
    INDEX 01 00:55:04
  TRACK 47 AUDIO
    TITLE "5:cjc005_3393"
    INDEX 01 00:55:30
  TRACK 48 AUDIO
    TITLE "0:"
    INDEX 01 00:58:36
  TRACK 49 AUDIO
    TITLE "3:cjc005_3394"
    INDEX 01 00:59:18
  TRACK 50 AUDIO
    TITLE "0:"
    INDEX 01 01:00:17
  TRACK 51 AUDIO
    TITLE "4:cjc005_3395"
    INDEX 01 01:00:43
  TRACK 52 AUDIO
    TITLE "0:"
    INDEX 01 01:01:38
  TRACK 53 AUDIO
    TITLE "5:cjc005_3396"
    INDEX 01 01:01:62
  TRACK 54 AUDIO
    TITLE "0:"
    INDEX 01 01:04:72
  TRACK 55 AUDIO
    TITLE "3:cjc005_3397"
    INDEX 01 01:05:52
  TRACK 56 AUDIO
    TITLE "0:"
    INDEX 01 01:06:63
  TRACK 57 AUDIO
    TITLE "4:cjc005_3398"
    INDEX 01 01:07:17
  TRACK 58 AUDIO
    TITLE "0:"
    INDEX 01 01:08:31
  TRACK 59 AUDIO
    TITLE "5:cjc005_3399"
    INDEX 01 01:08:54
  TRACK 60 AUDIO
    TITLE "0:"
    INDEX 01 01:12:32
